<svg width="29" height="28" viewBox="0 0 29 28" fill="none" xmlns="http://www.w3.org/2000/svg">
<path d="M28 20.32V4.22672C28 2.62672 26.6933 1.44005 25.1066 1.57338H25.0266C22.2266 1.81338 17.9733 3.24005 15.6 4.73338L15.3733 4.88005C14.9866 5.12005 14.3466 5.12005 13.96 4.88005L13.6266 4.68005C11.2533 3.20005 7.01331 1.78672 4.21331 1.56005C2.62665 1.42672 1.33331 2.62671 1.33331 4.21338V20.32C1.33331 21.6 2.37331 22.8 3.65331 22.96L4.03998 23.0134C6.93331 23.4 11.4 24.8667 13.96 26.2667L14.0133 26.2934C14.3733 26.4934 14.9466 26.4934 15.2933 26.2934C17.8533 24.88 22.3333 23.4 25.24 23.0134L25.68 22.96C26.96 22.8 28 21.6 28 20.32Z" stroke="#292D32" stroke-width="1.5" stroke-linecap="round" stroke-linejoin="round"/>
</svg>
